<?xml version="1.0" encoding="UTF-8"?>
<svg width="34px" height="37px" viewBox="0 0 34 37" version="1.1" xmlns="http://www.w3.org/2000/svg" xmlns:xlink="http://www.w3.org/1999/xlink">
    <!-- Generator: Sketch 41.2 (35397) - http://www.bohemiancoding.com/sketch -->
    <title>Full vector path</title>
    <desc>Created with Sketch.</desc>
    <defs></defs>
    <g id="Pages-(Dropbox-blue)" stroke="none" stroke-width="1" fill="none" fill-rule="evenodd">
        <g id="Pricing-v1" transform="translate(-92.000000, -50.000000)">
            <g id="header" transform="translate(93.000000, 51.000000)">
                <g id="logo">
                    <g id="Full-vector-path">
                        <path d="M3.77864624,18.1956871 L12.9701723,10.9496159 C14.8584924,9.46097273 17.8946573,9.5005583 19.7469175,11.0417528 L28.4657485,18.296357 L19.2188326,25.2855084 C17.2830132,26.7486703 14.1936661,26.6908604 12.31538,25.158807 L3.77864624,18.1956871 Z M1.44808654,20.0329666 L1.44613349,20.0345062 C-0.444299339,21.5248149 -0.46829284,23.9633845 1.40322741,25.4899191 L12.3362925,34.407644 C14.2030289,35.9302767 17.2670829,35.9924903 19.1970327,34.533765 L30.798872,25.7646778 C32.7212177,24.3116998 32.78536,21.8905397 30.9257731,20.3432489 L30.7945181,20.2340367 L19.8777262,28.4853404 C17.5402324,30.2521022 13.8941341,30.1847791 11.6245909,28.3335909 L1.44808654,20.0329666 Z" id="Base-layer" fill="#2E5BEC"></path>
                        <path d="M19.7679226,1.23802803 L30.9047679,10.5045689 C32.7700106,12.0565656 32.7114575,14.4978745 30.777072,15.9599526 L19.2188326,24.6960854 C17.2830132,26.1592473 14.1936661,26.1014374 12.31538,24.5693841 L1.42413986,15.6857743 C-0.452979408,14.1546727 -0.433455669,11.695064 1.4703535,10.1942102 L12.9459522,1.14750715 C14.8506187,-0.354022485 17.9040616,-0.312819093 19.7679226,1.23802803 Z M19.068867,2.08524385 C17.6018055,0.864558418 15.1211921,0.831470484 13.6225181,2.01293899 L2.14691938,11.059642 C0.79642065,12.1242977 0.783018346,13.7453546 2.11492898,14.8317483 L13.0061691,23.715358 C14.4941602,24.9290611 17.0267845,24.9758245 18.559939,23.8170112 L30.1181784,15.0808784 C31.4877723,14.0456901 31.5254112,12.4498555 30.2057122,11.3517847 L19.068867,2.08524385 Z" id="Middle-layer" stroke="#2E5BEC" stroke-width="1.1683019" fill="#FFFFFF"></path>
                    </g>
                </g>
            </g>
        </g>
    </g>
</svg>