<svg xmlns="http://www.w3.org/2000/svg" width="28" height="28" fill="none" viewBox="0 0 28 28">
    <path fill="#14141A" fill-rule="evenodd" d="M15.06 14l7.72-7.72c.293-.293.293-.767 0-1.06-.293-.293-.768-.293-1.06 0L14 12.939 6.28 5.22c-.292-.293-.767-.293-1.06 0-.293.293-.293.767 0 1.06L12.94 14l-7.72 7.72c-.293.293-.293.767 0 1.06.147.147.339.22.53.22.192 0 .384-.073.53-.22L14 15.061l7.72 7.719c.146.147.338.22.53.22s.384-.073.53-.22c.293-.293.293-.767 0-1.06L15.06 14z" clip-rule="evenodd"/>
</svg>
