<svg xmlns="http://www.w3.org/2000/svg" width="22" height="22" fill="none" viewBox="0 0 22 22">
    <path fill="#8E8E93" fill-rule="evenodd" d="M5.847 16.16c2.848 2.849 7.466 2.849 10.314 0 2.848-2.848 2.848-7.465 0-10.313-2.848-2.848-7.466-2.848-10.314 0s-2.848 7.465 0 10.313zm1.934-8.38c.267-.266.7-.266.967 0l2.256 2.257L13.26 7.78c.267-.267.7-.267.967 0s.267.7 0 .967l-2.256 2.256 2.256 2.256c.267.267.267.7 0 .967s-.7.267-.967 0l-2.256-2.256-2.256 2.256c-.267.267-.7.267-.967 0s-.267-.7 0-.967l2.256-2.256-2.256-2.256c-.267-.267-.267-.7 0-.967z" clip-rule="evenodd"/>
</svg>
