<svg xmlns="http://www.w3.org/2000/svg" width="20" height="20" fill="none" viewBox="0 0 20 20">
    <path fill="#C7C7CC" d="M12.917 11.667h-.658l-.234-.225c.521-.605.902-1.318 1.115-2.087.213-.77.254-1.577.119-2.363-.392-2.317-2.325-4.167-4.659-4.45-.82-.104-1.653-.019-2.436.249-.782.268-1.493.71-2.077 1.296-.585.584-1.028 1.295-1.296 2.077S2.438 7.78 2.541 8.6c.284 2.333 2.134 4.267 4.45 4.658.788.135 1.595.095 2.364-.118.77-.214 1.482-.594 2.087-1.115l.225.233v.659l3.542 3.541c.341.342.9.342 1.241 0 .342-.341.342-.9 0-1.241l-3.533-3.55zm-5 0c-2.075 0-3.75-1.675-3.75-3.75s1.675-3.75 3.75-3.75 3.75 1.675 3.75 3.75-1.675 3.75-3.75 3.75z"/>
</svg>
