<?xml version="1.0" encoding="UTF-8"?>
<svg width="92px" height="57px" viewBox="0 0 92 57" version="1.1" xmlns="http://www.w3.org/2000/svg" xmlns:xlink="http://www.w3.org/1999/xlink">
    <!-- Generator: Sketch 50.2 (55047) - http://www.bohemiancoding.com/sketch -->
    <title>Shape</title>
    <desc>Created with Sketch.</desc>
    <defs></defs>
    <g id="Page-1" stroke="none" stroke-width="1" fill="none" fill-rule="evenodd">
        <g id="baseline-keyboard_arrow_down-24px" fill="#000000" fill-rule="nonzero">
            <path d="M14.1475701,2.57246832 L44.5933923,32.6934216 C45.3726692,33.4643833 46.6273308,33.4643833 47.4066077,32.6934216 L77.8524299,2.57246832 C80.9719545,-0.513769666 85.9953329,-0.511030764 89.1114902,2.57860711 L89.2702623,2.73602808 C92.4077787,5.84684331 92.4294243,10.9121169 89.3186091,14.0496333 C89.3025624,14.0658177 89.2864467,14.0819334 89.2702623,14.09798 L47.4081573,55.6038265 C46.6285143,56.3768345 45.3714857,56.3768345 44.5918427,55.6038265 L2.72973768,14.09798 C-0.407778714,10.9871648 -0.429424284,5.92189121 2.68139094,2.78437482 C2.69743758,2.76819044 2.71355331,2.75207472 2.72973768,2.73602808 L2.88850984,2.57860711 C6.00466711,-0.511030764 11.0280455,-0.513769666 14.1475701,2.57246832 Z" id="Shape"></path>
        </g>
    </g>
</svg>