<?xml version="1.0" encoding="UTF-8"?>
<svg width="62px" height="55px" viewBox="0 0 62 55" version="1.1" xmlns="http://www.w3.org/2000/svg" xmlns:xlink="http://www.w3.org/1999/xlink">
    <!-- Generator: Sketch 43.2 (39069) - http://www.bohemiancoding.com/sketch -->
    <title>error-warning-icon</title>
    <desc>Created with Sketch.</desc>
    <defs></defs>
    <g id="Page-1" stroke="none" stroke-width="1" fill="none" fill-rule="evenodd">
        <g id="error-warning-icon" fill-rule="nonzero" fill="#D83B46">
            <path d="M60.2,41.5 L38.7,5.3 C37.1,2.5 34.2,0.9 31,0.9 C27.8,0.9 24.9,2.5 23.3,5.3 L1.8,41.5 C0.1,44.3 0.1,47.7 1.7,50.5 C3.3,53.3 6.2,55 9.5,55 L52.4,55 C55.7,55 58.6,53.3 60.2,50.5 C61.9,47.7 61.9,44.3 60.2,41.5 Z M55.1,47.6 C54.8,48.1 54.1,49.1 52.5,49.1 L9.5,49.1 C7.9,49.1 7.2,48 6.9,47.6 C6.6,47.1 6.1,45.9 6.9,44.6 L28.4,8.4 C29.2,7.1 30.5,6.9 31,6.9 C31.5,6.9 32.8,7 33.6,8.4 L55.1,44.6 C55.9,45.9 55.3,47.1 55.1,47.6 Z" id="Shape"></path>
            <path d="M31,15.2 C29.3,15.2 28,16.5 28,18.2 L28,34.2 C28,35.9 29.3,37.2 31,37.2 C32.7,37.2 34,35.9 34,34.2 L34,18.2 C34,16.6 32.7,15.2 31,15.2 Z" id="Shape"></path>
            <path d="M31,38.8 C29.3,38.8 28,40.1 28,41.8 L28,42.8 C28,44.5 29.3,45.8 31,45.8 C32.7,45.8 34,44.5 34,42.8 L34,41.8 C34,40.1 32.7,38.8 31,38.8 Z" id="Shape"></path>
        </g>
    </g>
</svg>