<svg width="38px" height="26px" viewBox="0 0 38 26" x="0px" y="0px" version="1.1" xmlns="http://www.w3.org/2000/svg" xmlns:xlink="http://www.w3.org/1999/xlink" xmlns:sketch="http://www.bohemiancoding.com/sketch/ns">
  <path fill="#fff" d="M4.59255916,9.14153015 L4.59255916,9.14153015 L4.59255917,9.14153016 C3.61060488,8.15335155 2.0152224,8.15314806 1.03260582,9.1419932 L0.737322592,9.43914816 C-0.245558943,10.4282599 -0.245836003,12.0327396 0.736862454,13.0216671 L12.8967481,25.2586313 C13.4826504,25.8482474 14.3060779,26.1023412 15.1093609,25.9623831 L15.1946218,25.9520176 C15.7962843,25.9101633 16.3621851,25.6553951 16.7974015,25.21742 L37.2642739,4.6208133 C38.2456495,3.63321696 38.2453889,2.02851586 37.2626092,1.03950653 L36.967326,0.742351578 C35.9843771,-0.246827998 34.390543,-0.247513927 33.4085772,0.740676315 L15.4197831,18.8434968 L14.826599,19.4404409 L14.2334149,18.8434968 L4.59255916,9.14153015 Z" id="Path"></path>
</svg>
