<?xml version="1.0" encoding="UTF-8" standalone="no"?>
<svg class="bookingjs-closeicon" width="90px" height="90px" viewBox="0 0 90 90" version="1.1" xmlns="http://www.w3.org/2000/svg" xmlns:xlink="http://www.w3.org/1999/xlink" xmlns:sketch="http://www.bohemiancoding.com/sketch/ns">
    <!-- Generator: Sketch 3.3.3 (12072) - http://www.bohemiancoding.com/sketch -->
    <title>close-icon</title>
    <desc>Created with Sketch.</desc>
    <defs></defs>
    <g id="Page-1" stroke="none" stroke-width="1" fill="none" fill-rule="evenodd" sketch:type="MSPage">
        <g id="close-icon" sketch:type="MSLayerGroup" fill="#000000">
            <path d="M58,45 L87.2,15.8 C90.9,12.1 90.9,6.3 87.3,2.7 C83.7,-0.9 77.8,-0.8 74.2,2.8 L45,32 L15.8,2.8 C12.1,-0.9 6.3,-0.9 2.7,2.7 C-0.9,6.3 -0.8,12.2 2.8,15.8 L32,45 L2.8,74.2 C-0.9,77.9 -0.9,83.7 2.7,87.3 C6.3,90.9 12.2,90.8 15.8,87.2 L45,58 L74.2,87.2 C77.9,90.9 83.7,90.9 87.3,87.3 C90.9,83.7 90.8,77.8 87.2,74.2 L58,45 L58,45 Z" id="Shape" sketch:type="MSShapeGroup"></path>
        </g>
    </g>
</svg>
