<?xml version="1.0" encoding="UTF-8" standalone="no"?>
<svg class="bookingjs-timezoneicon" width="98px" height="98px" viewBox="0 0 98 98" version="1.1" xmlns="http://www.w3.org/2000/svg" xmlns:xlink="http://www.w3.org/1999/xlink" xmlns:sketch="http://www.bohemiancoding.com/sketch/ns">
    <!-- Generator: Sketch 3.3.3 (12072) - http://www.bohemiancoding.com/sketch -->
    <title>Shape</title>
    <desc>Created with Sketch.</desc>
    <defs></defs>
    <g id="Page-1" stroke="none" stroke-width="1" fill="none" fill-rule="evenodd" sketch:type="MSPage">
        <g id="timezone-icon" sketch:type="MSLayerGroup" fill="#AEAEAE">
            <path d="M37.656,1.387 L39.381,2.516 L46.176,3.475 L49.313,2.778 L55.186,3.495 L56.364,5.065 L52.274,4.52 L48.092,6.262 L49.293,9.385 L53.613,11.348 L54.189,7.395 L58.285,7.133 L64.121,12.707 L65.775,14.887 L66.56,16.28 L62.029,18.067 L55.185,21.169 L54.624,24.206 L50.095,28.476 L50.271,32.572 L48.9,32.559 L48.353,29.086 L45.757,28.238 L38.294,28.631 L35.286,34.137 L37.901,37.274 L42.221,34.917 L42.516,38.755 L44.172,40.062 L47.131,43.46 L46.985,47.751 L52.448,49.034 L56.454,46.159 L58.284,46.768 L65.003,49.45 L74.433,52.985 L76.396,57.698 L83.111,60.968 L84.644,66.732 L80.062,71.857 L74.66,77.519 L68.933,80.482 L63.04,84.408 L55.185,89.515 L50.835,93.941 L49.292,92.263 L52.782,83.419 L53.663,73.167 L46.15,66.34 L46.199,60.596 L48.164,58.239 L50.471,51.415 L45.809,48.811 L42.664,43.706 L37.75,41.817 L30.047,37.667 L26.904,29.024 L25.334,33.344 L22.977,26.276 L23.762,15.671 L27.69,12.136 L26.512,9.779 L29.26,5.459 L23.905,6.99 C9.611,15.545 0.01,31.135 0.01,49.006 C0.01,76.062 21.945,98 49.006,98 C76.062,98 98,76.062 98,49.006 C98,21.947 76.062,0.012 49.006,0.012 C45.092,0.012 41.305,0.52 37.656,1.387 Z" id="Shape" sketch:type="MSShapeGroup"></path>
        </g>
    </g>
</svg>
