<?xml version="1.0" encoding="UTF-8"?>
<svg class="bookingjs-timekitlogo" width="513px" height="548px" viewBox="0 0 513 548" version="1.1" xmlns="http://www.w3.org/2000/svg" xmlns:xlink="http://www.w3.org/1999/xlink">
    <!-- Generator: Sketch 40.1 (33804) - http://www.bohemiancoding.com/sketch -->
    <title>timekit-logo</title>
    <desc>Created with Sketch.</desc>
    <defs></defs>
    <g id="Page-1" stroke="none" stroke-width="1" fill="none" fill-rule="evenodd">
        <g id="timekit-logo" transform="translate(9.000000, 9.000000)" fill="#AEAEAE">
            <path d="M55.2163313,275.621588 L198.50357,163.134257 C227.693194,140.219007 274.527519,140.836287 303.106573,164.516436 L439.222777,277.300154 L294.687237,386.088734 C265.004826,408.430003 217.635083,407.547293 188.834846,384.15411 L55.2163313,275.621588 Z M29.1450782,296.088768 L22.5453033,301.269906 C-6.64628574,324.186699 -6.96035256,361.73094 21.8567615,385.137832 L188.814783,520.750588 C217.626101,544.152772 265.020127,545.031261 294.666324,522.71725 L471.933566,389.292269 C501.58244,366.976243 502.456142,329.694313 473.870647,306.008826 L465.168534,298.798395 L304.79022,419.511467 C268.948833,446.488455 213.042282,445.460488 178.242802,417.194379 L29.1450782,296.088768 Z" id="Base-layer"></path>
            <path d="M303.106573,18.9036609 L473.870647,160.396052 C502.470886,184.093754 501.573077,221.370515 471.912654,243.695235 L294.687237,377.088734 C265.004826,399.430003 217.635083,398.547293 188.834846,375.15411 L21.8366979,239.50876 C-6.94564818,216.130109 -6.64628574,178.573924 22.5453033,155.657132 L198.50357,17.5214821 C227.708304,-5.40562963 274.527519,-4.77648801 303.106573,18.9036609 Z M292.387775,31.8399435 C269.89295,13.2010897 231.857075,12.6958644 208.877526,30.7359084 L32.9192595,168.871558 C12.2117199,185.127966 12.006219,209.880161 32.4287426,226.468491 L199.426891,362.113841 C222.242635,380.64608 261.076006,381.360119 284.584254,363.666001 L461.809671,230.272501 C482.810002,214.466035 483.387128,190.098964 463.151849,173.332334 L292.387775,31.8399435 Z" id="Middle-layer" stroke="#AEAEAE" stroke-width="18"></path>
        </g>
    </g>
</svg>
