<?xml version="1.0" encoding="UTF-8" standalone="no"?>
<svg class="bookingjs-timekitlogo" width="495px" height="594px" viewBox="0 0 495 594" version="1.1" xmlns="http://www.w3.org/2000/svg" xmlns:xlink="http://www.w3.org/1999/xlink" xmlns:sketch="http://www.bohemiancoding.com/sketch/ns">
    <!-- Generator: Sketch 3.4.2 (15855) - http://www.bohemiancoding.com/sketch -->
    <title>Full vector path</title>
    <desc>Created with Sketch.</desc>
    <defs></defs>
    <g id="Page-1" stroke="none" stroke-width="1" fill="none" fill-rule="evenodd" sketch:type="MSPage">
        <g id="Artboard-8" sketch:type="MSArtboardGroup" transform="translate(-979.000000, -549.000000)" fill="#AEAEAE">
            <g id="Full-vector-path" sketch:type="MSLayerGroup" transform="translate(979.000000, 549.000000)">
                <path d="M32.6783606,348.314972 L81.9095347,309.666147 L178.242802,387.91348 C213.042282,416.179589 268.948833,417.207556 304.79022,390.230569 L411.868735,309.63503 L461.989416,351.164228 L294.687237,477.088734 C265.004826,499.430003 217.635083,498.547293 188.834846,475.15411 L32.6783606,348.314972 Z M19.2354438,359.039602 C-6.62593762,382.117664 -5.82713003,417.651408 21.8567615,440.137832 L188.814783,575.750588 C217.626101,599.152772 265.020127,600.031261 294.666324,577.71725 L471.933566,444.292269 C501.091173,422.346008 502.419289,385.92569 475.267328,362.197265 L304.79022,490.511467 C268.948833,517.488455 213.042282,516.460488 178.242802,488.194379 L19.2354438,359.039602 Z M95.4596929,299.028626 L198.50357,218.134257 C227.693194,195.219007 274.527519,195.836287 303.106573,219.516436 L398.57111,298.61683 L294.687237,376.807835 C265.004826,399.149104 217.635083,398.266394 188.834846,374.873211 L95.4596929,299.028626 Z" id="Base-layer" sketch:type="MSShapeGroup"></path>
                <path d="M45.8421644,258.72646 L32.470588,247.865309 L198.50357,117.521482 C227.708304,94.5943704 274.527519,95.223512 303.106573,118.903661 L462.199296,250.725357 L448.401633,261.110541 L292.387775,131.839944 C269.89295,113.20109 231.857075,112.695864 208.877526,130.735908 L45.8421644,258.72646 Z M32.2967277,269.367817 L19.0412272,258.600949 C-6.62061571,281.684165 -5.74436993,317.105855 21.8366979,339.50876 L188.834846,475.15411 C217.635083,498.547293 265.004826,499.430003 294.687237,477.088734 L471.912654,343.695235 C501.008799,321.795234 502.426315,285.506694 475.470948,261.763118 L461.699258,272.12874 L463.151849,273.332334 C483.387128,290.098964 482.810002,314.466035 461.809671,330.272501 L284.584254,463.666001 C261.076006,481.360119 222.242635,480.64608 199.426891,462.113841 L32.4287426,326.468491 C12.2129453,310.048076 12.2096732,285.628236 32.2967277,269.367817 Z" id="Middle-layer" sketch:type="MSShapeGroup"></path>
                <path d="M303.106573,18.6227621 L473.870647,160.115153 C502.470886,183.812855 501.573077,221.089616 471.912654,243.414336 L294.687237,376.807835 C265.004826,399.149104 217.635083,398.266394 188.834846,374.873211 L21.8366979,239.227861 C-6.94564818,215.84921 -6.64628574,178.293025 22.5453033,155.376233 L198.50357,17.2405832 C227.708304,-5.6865285 274.527519,-5.05738689 303.106573,18.6227621 Z M292.387775,31.5590447 C269.89295,12.9201909 231.857075,12.4149656 208.877526,30.4550095 L32.9192595,168.590659 C12.2117199,184.847067 12.006219,209.599262 32.4287426,226.187592 L199.426891,361.832942 C222.242635,380.365181 261.076006,381.07922 284.584254,363.385102 L461.809671,229.991603 C482.810002,214.185136 483.387128,189.818065 463.151849,173.051435 L292.387775,31.5590447 Z" id="Top-layer" sketch:type="MSShapeGroup"></path>
            </g>
        </g>
    </g>
</svg>
